{
  "accessors": [
    {
      "bufferView": 2,
      "componentType": 5126,
      "count": 2005,
      "max": [
        587.673828125,
        588.1046752929688,
        1601.2335205078125
      ],
      "min": [
        -587.671875,
        -530.6091918945313,
        -38.904197692871094
      ],
      "type": "VEC3"
    },
    {
      "bufferView": 2,
      "byteOffset": 24060,
      "componentType": 5126,
      "count": 2005,
      "max": [
        0.943945586681366,
        0.9445741772651672,
        0.9433466196060181
      ],
      "min": [
        -4.285573959350586e-05,
        -5.086138844490051e-05,
        -5.797017365694046e-05
      ],
      "type": "VEC3"
    },
    {
      "bufferView": 1,
      "componentType": 5126,
      "count": 2005,
      "max": [
        0.9990234375,
        2.6181640625
      ],
      "min": [
        0.00855255126953125,
        -0.103515625
      ],
      "type": "VEC2"
    },
    {
      "bufferView": 0,
      "componentType": 5125,
      "count": 4842,
      "type": "SCALAR"
    }
  ],
  "asset": {
    "extras": {
      "author": "H U N T E R 7 (https://sketchfab.com/hunter7)",
      "license": "CC-BY-4.0 (http://creativecommons.org/licenses/by/4.0/)",
      "source": "https://sketchfab.com/3d-models/game-ready-tree-2caa3f89aef64a5795721b0c2e6b3904",
      "title": "Game ready tree"
    },
    "generator": "Sketchfab-15.1.0",
    "version": "2.0"
  },
  "bufferViews": [
    {
      "buffer": 0,
      "byteLength": 19368,
      "name": "floatBufferViews",
      "target": 34963
    },
    {
      "buffer": 0,
      "byteLength": 16040,
      "byteOffset": 19368,
      "byteStride": 8,
      "name": "floatBufferViews",
      "target": 34962
    },
    {
      "buffer": 0,
      "byteLength": 48120,
      "byteOffset": 35408,
      "byteStride": 12,
      "name": "floatBufferViews",
      "target": 34962
    }
  ],
  "buffers": [
    {
      "byteLength": 83528,
      "uri": "scene.bin"
    }
  ],
  "images": [
    {
      "uri": "textures/mat0.001_baseColor.png"
    }
  ],
  "materials": [
    {
      "alphaCutoff": 0.4490990504742546,
      "alphaMode": "MASK",
      "doubleSided": true,
      "name": "mat0.001",
      "pbrMetallicRoughness": {
        "baseColorTexture": {
          "index": 0
        },
        "metallicFactor": 0.0
      }
    }
  ],
  "meshes": [
    {
      "name": "Mesh_0349.rip_mat0.001_0",
      "primitives": [
        {
          "attributes": {
            "NORMAL": 1,
            "POSITION": 0,
            "TEXCOORD_0": 2
          },
          "indices": 3,
          "material": 0,
          "mode": 4
        }
      ]
    }
  ],
  "nodes": [
    {
      "children": [
        1
      ],
      "matrix": [
        1.0,
        0.0,
        0.0,
        0.0,
        0.0,
        2.220446049250313e-16,
        -1.0,
        0.0,
        0.0,
        1.0,
        2.220446049250313e-16,
        0.0,
        0.0,
        0.0,
        0.0,
        1.0
      ],
      "name": "Sketchfab_model"
    },
    {
      "children": [
        2
      ],
      "matrix": [
        0.009999999776482582,
        0.0,
        0.0,
        0.0,
        0.0,
        0.0,
        0.009999999776482582,
        0.0,
        0.0,
        -0.009999999776482582,
        0.0,
        0.0,
        0.0,
        0.0,
        0.0,
        1.0
      ],
      "name": "c191013755c64cd0a633ddab459c5579.fbx"
    },
    {
      "children": [
        3
      ],
      "name": "RootNode"
    },
    {
      "children": [
        4
      ],
      "matrix": [
        1.0,
        0.0,
        0.0,
        0.0,
        0.0,
        -1.6292067939183141e-07,
        -0.9999999999999868,
        0.0,
        0.0,
        0.9999999999999868,
        -1.6292067939183141e-07,
        0.0,
        0.0,
        0.0,
        0.0,
        1.0
      ],
      "name": "Mesh_0349.rip"
    },
    {
      "mesh": 0,
      "name": "Mesh_0349.rip_mat0.001_0"
    }
  ],
  "samplers": [
    {
      "magFilter": 9729,
      "minFilter": 9987,
      "wrapS": 10497,
      "wrapT": 10497
    }
  ],
  "scene": 0,
  "scenes": [
    {
      "name": "Sketchfab_Scene",
      "nodes": [
        0
      ]
    }
  ],
  "textures": [
    {
      "sampler": 0,
      "source": 0
    }
  ]
}
